<?xml version="1.0" standalone="no"?>
<!DOCTYPE svg PUBLIC "-//W3C//DTD SVG 20010904//EN"
 "http://www.w3.org/TR/2001/REC-SVG-20010904/DTD/svg10.dtd">
<svg version="1.0" xmlns="http://www.w3.org/2000/svg"
 width="512.000000pt" height="512.000000pt" viewBox="0 0 512.000000 512.000000"
 preserveAspectRatio="xMidYMid meet">

<g transform="translate(0.000000,512.000000) scale(0.100000,-0.100000)"
fill="#000000" stroke="none">
<path d="M2330 5110 c-494 -48 -950 -230 -1350 -538 -195 -150 -448 -432 -594
-662 -63 -99 -186 -351 -230 -471 -204 -556 -204 -1202 -2 -1754 46 -124 168
-375 232 -475 59 -92 166 -238 222 -303 l41 -47 16 57 c71 257 187 493 344
698 62 82 231 255 316 324 145 118 323 224 500 296 50 21 91 38 92 39 2 1 -26
23 -61 49 -597 439 -653 1304 -117 1819 98 95 178 150 306 213 163 80 324 116
515 116 191 0 352 -36 515 -116 128 -63 208 -118 306 -213 532 -511 483 -1365
-104 -1808 -34 -26 -66 -50 -70 -54 -4 -4 25 -19 65 -35 249 -96 484 -252 680
-451 245 -248 408 -534 503 -878 l17 -59 24 29 c56 67 194 254 238 324 64 100
186 351 232 475 202 552 202 1198 -2 1754 -44 120 -167 372 -230 471 -204 321
-503 620 -824 824 -99 63 -351 186 -471 230 -135 49 -341 102 -494 126 -147
23 -475 34 -615 20z"/>
<path d="M2510 4172 c-470 -26 -840 -416 -840 -885 0 -257 94 -474 283 -653
340 -324 874 -324 1214 0 189 179 283 396 283 653 0 508 -432 914 -940 885z"/>
<path d="M2440 2073 c-237 -23 -418 -73 -612 -168 -433 -214 -758 -614 -872
-1075 -13 -52 -27 -113 -30 -135 -4 -22 -9 -52 -12 -66 -4 -23 6 -33 88 -96
123 -93 240 -168 368 -236 887 -468 1940 -377 2748 236 106 80 99 53 61 241
-114 558 -545 1036 -1100 1220 -203 68 -449 98 -639 79z"/>
</g>
</svg>
